<svg width="348" height="253" viewBox="0 0 348 253" fill="none" xmlns="http://www.w3.org/2000/svg">
<g filter="url(#filter0_f_2_4)">
<path d="M333.356 12.8145L14.9012 11.1993C11.9659 11.1845 10.7581 14.9586 13.1566 16.6507L330.485 240.511C332.466 241.909 335.202 240.5 335.214 238.075L336.341 15.8297C336.349 14.1728 335.013 12.8229 333.356 12.8145Z" stroke="#FF00D6" stroke-width="6"/>
</g>
<g filter="url(#filter1_i_2_4)">
<path d="M333.356 12.8145L14.9012 11.1993C11.9659 11.1845 10.7581 14.9586 13.1566 16.6507L330.485 240.511C332.466 241.909 335.202 240.5 335.214 238.075L336.341 15.8297C336.349 14.1728 335.013 12.8229 333.356 12.8145Z" stroke="#FF00D6" stroke-width="4"/>
</g>
<defs>
<filter id="filter0_f_2_4" x="0.874329" y="0.199295" width="346.467" height="251.871" filterUnits="userSpaceOnUse" color-interpolation-filters="sRGB">
<feFlood flood-opacity="0" result="BackgroundImageFix"/>
<feBlend mode="normal" in="SourceGraphic" in2="BackgroundImageFix" result="shape"/>
<feGaussianBlur stdDeviation="4" result="effect1_foregroundBlur_2_4"/>
</filter>
<filter id="filter1_i_2_4" x="9.87627" y="9.1993" width="328.465" height="237.869" filterUnits="userSpaceOnUse" color-interpolation-filters="sRGB">
<feFlood flood-opacity="0" result="BackgroundImageFix"/>
<feBlend mode="normal" in="SourceGraphic" in2="BackgroundImageFix" result="shape"/>
<feColorMatrix in="SourceAlpha" type="matrix" values="0 0 0 0 0 0 0 0 0 0 0 0 0 0 0 0 0 0 127 0" result="hardAlpha"/>
<feOffset dy="4"/>
<feGaussianBlur stdDeviation="2"/>
<feComposite in2="hardAlpha" operator="arithmetic" k2="-1" k3="1"/>
<feColorMatrix type="matrix" values="0 0 0 0 0 0 0 0 0 0 0 0 0 0 0 0 0 0 0.25 0"/>
<feBlend mode="normal" in2="shape" result="effect1_innerShadow_2_4"/>
</filter>
</defs>
</svg>
