<svg width="347" height="253" viewBox="0 0 347 253" fill="none" xmlns="http://www.w3.org/2000/svg">
<g filter="url(#filter0_f_2_4)">
<path d="M14.1458 12.8145L332.601 11.1993C335.536 11.1845 336.744 14.9586 334.345 16.6507L17.0175 240.511C15.0359 241.909 12.3005 240.5 12.2882 238.075L11.161 15.8297C11.1526 14.1728 12.4889 12.8229 14.1458 12.8145Z" stroke="#FF00D6" stroke-width="6"/>
</g>
<g filter="url(#filter1_i_2_4)">
<path d="M14.1458 12.8145L332.601 11.1993C335.536 11.1845 336.744 14.9586 334.345 16.6507L17.0175 240.511C15.0359 241.909 12.3005 240.5 12.2882 238.075L11.161 15.8297C11.1526 14.1728 12.4889 12.8229 14.1458 12.8145Z" stroke="#FF00D6" stroke-width="4"/>
</g>
<defs>
<filter id="filter0_f_2_4" x="0.16098" y="0.199295" width="346.467" height="251.871" filterUnits="userSpaceOnUse" color-interpolation-filters="sRGB">
<feFlood flood-opacity="0" result="BackgroundImageFix"/>
<feBlend mode="normal" in="SourceGraphic" in2="BackgroundImageFix" result="shape"/>
<feGaussianBlur stdDeviation="4" result="effect1_foregroundBlur_2_4"/>
</filter>
<filter id="filter1_i_2_4" x="9.16098" y="9.1993" width="328.465" height="237.869" filterUnits="userSpaceOnUse" color-interpolation-filters="sRGB">
<feFlood flood-opacity="0" result="BackgroundImageFix"/>
<feBlend mode="normal" in="SourceGraphic" in2="BackgroundImageFix" result="shape"/>
<feColorMatrix in="SourceAlpha" type="matrix" values="0 0 0 0 0 0 0 0 0 0 0 0 0 0 0 0 0 0 127 0" result="hardAlpha"/>
<feOffset dy="4"/>
<feGaussianBlur stdDeviation="2"/>
<feComposite in2="hardAlpha" operator="arithmetic" k2="-1" k3="1"/>
<feColorMatrix type="matrix" values="0 0 0 0 0 0 0 0 0 0 0 0 0 0 0 0 0 0 0.25 0"/>
<feBlend mode="normal" in2="shape" result="effect1_innerShadow_2_4"/>
</filter>
</defs>
</svg>
