<svg width="347" height="253" viewBox="0 0 347 253" fill="none" xmlns="http://www.w3.org/2000/svg">
<g filter="url(#filter0_f_2_4)">
<path d="M14.1458 240.184L332.601 241.799C335.536 241.814 336.744 238.04 334.345 236.348L17.0175 12.4877C15.0359 11.0897 12.3005 12.4988 12.2882 14.9239L11.161 237.169C11.1526 238.826 12.4889 240.176 14.1458 240.184Z" stroke="#FF00D6" stroke-width="6"/>
</g>
<g filter="url(#filter1_i_2_4)">
<path d="M14.1458 240.184L332.601 241.799C335.536 241.814 336.744 238.04 334.345 236.348L17.0175 12.4877C15.0359 11.0897 12.3005 12.4988 12.2882 14.9239L11.161 237.169C11.1526 238.826 12.4889 240.176 14.1458 240.184Z" stroke="#FF00D6" stroke-width="4"/>
</g>
<defs>
<filter id="filter0_f_2_4" x="0.16098" y="0.928787" width="346.467" height="251.871" filterUnits="userSpaceOnUse" color-interpolation-filters="sRGB">
<feFlood flood-opacity="0" result="BackgroundImageFix"/>
<feBlend mode="normal" in="SourceGraphic" in2="BackgroundImageFix" result="shape"/>
<feGaussianBlur stdDeviation="4" result="effect1_foregroundBlur_2_4"/>
</filter>
<filter id="filter1_i_2_4" x="9.16098" y="9.9305" width="328.465" height="237.869" filterUnits="userSpaceOnUse" color-interpolation-filters="sRGB">
<feFlood flood-opacity="0" result="BackgroundImageFix"/>
<feBlend mode="normal" in="SourceGraphic" in2="BackgroundImageFix" result="shape"/>
<feColorMatrix in="SourceAlpha" type="matrix" values="0 0 0 0 0 0 0 0 0 0 0 0 0 0 0 0 0 0 127 0" result="hardAlpha"/>
<feOffset dy="4"/>
<feGaussianBlur stdDeviation="2"/>
<feComposite in2="hardAlpha" operator="arithmetic" k2="-1" k3="1"/>
<feColorMatrix type="matrix" values="0 0 0 0 0 0 0 0 0 0 0 0 0 0 0 0 0 0 0.25 0"/>
<feBlend mode="normal" in2="shape" result="effect1_innerShadow_2_4"/>
</filter>
</defs>
</svg>
